<?xml version="1.0" encoding="UTF-8" standalone="no"?>
<svg
   xmlns:dc="http://purl.org/dc/elements/1.1/"
   xmlns:cc="http://creativecommons.org/ns#"
   xmlns:rdf="http://www.w3.org/1999/02/22-rdf-syntax-ns#"
   xmlns:svg="http://www.w3.org/2000/svg"
   xmlns="http://www.w3.org/2000/svg"
   xmlns:sodipodi="http://sodipodi.sourceforge.net/DTD/sodipodi-0.dtd"
   xmlns:inkscape="http://www.inkscape.org/namespaces/inkscape"
   height="100%"
   width="100%"
   preserveAspectRatio="xMinYMin meet"
   viewBox="0 0 34.941866 20.000001"
   id="svg2995"
   version="1.1"
   inkscape:version="0.48.5 r10040"
   sodipodi:docname="alpha-back.svg"><metadata
   id="metadata3003">
  <rdf:RDF>
    <cc:Work
       rdf:about="">
      <dc:format>image/svg+xml</dc:format>
      <dc:type
         rdf:resource="http://purl.org/dc/dcmitype/StillImage" />
      <dc:title />
    </cc:Work>
  </rdf:RDF>
</metadata>
<defs
   id="defs3001" />
<sodipodi:namedview
   pagecolor="#ffffff"
   bordercolor="#666666"
   borderopacity="1"
   objecttolerance="10"
   gridtolerance="10"
   guidetolerance="10"
   inkscape:pageopacity="0"
   inkscape:pageshadow="2"
   inkscape:window-width="1440"
   inkscape:window-height="830"
   id="namedview2999"
   showgrid="false"
   fit-margin-top="0"
   fit-margin-left="0"
   fit-margin-right="0"
   fit-margin-bottom="0"
   inkscape:zoom="2.1649824"
   inkscape:cx="191.83435"
   inkscape:cy="59.589475"
   inkscape:window-x="0"
   inkscape:window-y="0"
   inkscape:window-maximized="1"
   inkscape:current-layer="svg2995" />



i<g
   id="g3072"
   transform="matrix(0.04461445,0,0,0.04461445,3.6923916,2.3036574)"
   style="fill:#ffffff">
  <path
     sodipodi:nodetypes="cccc"
     inkscape:connector-curvature="0"
     id="rect3959"
     d="m 186.2992,0.130678 0,355.107482 L 0.0625,177.68442 z"
     style="fill:#ffffff;fill-opacity:1;stroke:#ffffff;stroke-width:0;stroke-miterlimit:4;stroke-opacity:1" />
  <g
     style="fill:#ffffff"
     id="g3004"
     transform="matrix(0.71959402,0,0,0.71959402,257.55951,2.308539)">
    <title
       id="title3006">Layer 1</title>
    <g
       style="fill:#ffffff"
       id="layer1" />
    <g
       style="fill:#ffffff"
       id="g16523">
      <path
         d="m 377.22781,25.543856 79.72852,0 -48.30609,217.142974 c -9.37982,41.27121 -15.78937,66.59674 -19.22864,75.97656 12.50638,57.5296 30.64075,86.29441 54.40293,86.29441 28.13946,0 42.67825,-19.38498 43.61624,-58.15491 l 16.88366,0 c -0.93802,36.26864 -7.58206,65.5806 -19.93213,87.93585 -12.35009,22.35529 -28.53027,33.53287 -48.54058,33.53287 -16.57108,0 -28.92118,-6.72217 -37.0503,-20.16663 -8.12924,-13.44436 -16.88379,-40.95856 -26.26361,-82.54245 -32.51672,68.47272 -85.66906,102.70908 -159.45698,102.70908 -50.33843,0 -90.35898,-19.61942 -120.061786,-58.8584 C 63.3163,370.17429 48.464868,313.97348 48.464868,240.81087 c 0,-71.91199 16.258362,-127.8783 48.775085,-167.89889 32.516797,-40.020584 71.599337,-60.030893 117.247867,-60.030893 32.20401,0 58.62391,11.412115 79.25952,34.236361 20.63556,22.824265 38.92621,60.030892 54.87201,111.619932 L 377.22781,25.543857 z M 335.95654,209.38846 C 321.26148,159.05005 304.8468,119.73293 286.71246,91.437119 268.57809,63.141327 246.84819,48.99342 221.52266,48.99342 c -57.21692,0 -85.82536,66.90942 -85.82536,200.72826 0,126.94031 27.3578,190.41046 82.07344,190.41046 47.52446,0 82.6988,-55.96625 105.52299,-167.89886 l 12.66281,-62.84482 z"
         id="path16525"
         inkscape:connector-curvature="0"
         style="fill:#ffffff" />
    </g>
  </g>
</g>
</svg>
